<svg width="27" height="27" viewBox="0 0 27 27" fill="none" xmlns="http://www.w3.org/2000/svg">
<path d="M24.4052 9.12031H21.663C21.6071 4.3875 17.7427 0.558594 12.9997 0.558594C8.25675 0.558594 4.3923 4.3875 4.34152 9.12031H1.59933C0.629407 9.19648 0.527844 10.0293 0.578626 10.3289L2.99581 24.5781C3.08214 25.0758 3.51378 25.4414 4.01652 25.4414H21.9829C22.4907 25.4414 22.9224 25.0758 23.0036 24.5781L25.4259 10.3289C25.4767 10.0293 25.3548 9.19141 24.4052 9.12031ZM12.9997 2.63047C16.6001 2.63047 19.5302 5.53008 19.586 9.11523H6.41339C6.46925 5.53008 9.39933 2.63047 12.9997 2.63047ZM21.1095 23.3695H4.89503L2.82316 11.1922H23.1763L21.1095 23.3695Z" fill="white"/>
</svg>
