<svg width="30" height="30" viewBox="0 0 30 30" fill="none" xmlns="http://www.w3.org/2000/svg">
<path d="M18.375 6H11.625C8.51888 6 6 8.51888 6 11.625V18.375C6 21.4811 8.51888 24 11.625 24H18.375C21.4811 24 24 21.4811 24 18.375V11.625C24 8.51888 21.4811 6 18.375 6ZM22.3125 18.375C22.3125 20.5463 20.5463 22.3125 18.375 22.3125H11.625C9.45375 22.3125 7.6875 20.5463 7.6875 18.375V11.625C7.6875 9.45375 9.45375 7.6875 11.625 7.6875H18.375C20.5463 7.6875 22.3125 9.45375 22.3125 11.625V18.375Z" fill="#202020"/>
<path d="M15 10.5C12.5149 10.5 10.5 12.5149 10.5 15C10.5 17.4851 12.5149 19.5 15 19.5C17.4851 19.5 19.5 17.4851 19.5 15C19.5 12.5149 17.4851 10.5 15 10.5ZM15 17.8125C13.4497 17.8125 12.1875 16.5502 12.1875 15C12.1875 13.4486 13.4497 12.1875 15 12.1875C16.5502 12.1875 17.8125 13.4486 17.8125 15C17.8125 16.5502 16.5502 17.8125 15 17.8125Z" fill="#202020"/>
<path d="M20.0625 10.5C20.3732 10.5 20.625 10.2482 20.625 9.9375C20.625 9.62684 20.3732 9.375 20.0625 9.375C19.7518 9.375 19.5 9.62684 19.5 9.9375C19.5 10.2482 19.7518 10.5 20.0625 10.5Z" fill="#202020"/>
<rect x="0.5" y="0.5" width="29" height="29" rx="6.5" stroke="#E1E1E3"/>
</svg>
