<svg width="102" height="100" viewBox="0 0 102 100" fill="none" xmlns="http://www.w3.org/2000/svg">
<path d="M71.2024 23.6685L71.2499 23.6537C71.1392 23.014 70.6216 22.5049 70.3914 21.9204C70.159 21.3221 70.2619 20.5477 69.9122 20.0184C69.5625 19.4891 69.0295 19.0611 68.5591 18.6229C68.1047 18.1964 67.4992 17.9374 66.9391 17.6067C66.4103 17.2924 65.8663 16.9734 65.2398 16.7607C64.3635 16.4599 64.3378 16.5213 63.4615 16.2206C62.5852 15.9198 62.6825 15.6395 61.8051 15.3318C60.9289 15.0311 60.9441 14.9929 60.0667 14.6851C59.1904 14.3844 59.1799 14.4075 58.3036 14.1068C57.4274 13.806 57.3442 14.0412 56.4668 13.7334C55.5905 13.4327 55.5283 13.6215 54.6509 13.3138C53.7747 13.013 53.9165 12.6111 53.0391 12.3034C52.1628 12.0027 52.1042 12.1695 51.2268 11.8617C50.3506 11.561 50.3694 11.5008 49.492 11.193C48.8954 10.9898 48.2317 11.0762 47.6256 10.946C47.0125 10.8169 46.4568 10.2925 45.8342 10.2365C45.2115 10.1804 44.5704 10.6706 43.9462 10.6934C43.3255 10.7371 42.657 10.3097 42.0383 10.4102C41.4197 10.5108 40.9044 11.0734 40.3051 11.2495C39.7057 11.4255 39.0929 11.5179 38.5188 11.7614C37.9446 12.0048 37.4269 12.332 36.886 12.6486C36.3521 12.9641 35.7514 13.1761 35.2497 13.5579C34.5132 14.1207 34.3774 13.9427 33.6409 14.5055C32.9045 15.0684 33.0392 15.2395 32.3039 15.8093C31.5675 16.3721 31.7125 16.563 30.9761 17.1259C30.2396 17.6887 29.976 17.3384 29.2396 17.9013C28.5031 18.4642 28.7944 18.8528 28.0649 19.4146C27.3284 19.9774 27.0763 19.6539 26.3399 20.2167C25.6034 20.7796 25.8118 21.0531 25.0753 21.6159C24.3389 22.1788 24.2951 22.1287 23.5587 22.6916C22.8222 23.2544 22.8948 23.3499 22.1595 23.9197C21.6391 24.3188 21.0475 24.5865 20.646 25.0592C20.2201 25.5572 19.9953 26.1513 19.7069 26.7057C19.4069 27.2762 19.2527 27.866 19.0868 28.4719C18.9163 29.0929 18.4438 29.6557 18.404 30.2912C18.3653 30.9337 18.4168 31.6043 18.5183 32.2312L18.6504 32.2097C18.7968 33.158 19.0401 33.1185 19.1935 34.0656C19.3468 35.0128 19.2217 35.0332 19.3751 35.9803C19.5284 36.9275 19.4033 36.9479 19.5566 37.895C19.71 38.8422 19.4598 38.8829 19.6131 39.8301C19.7665 40.7773 20.1418 40.7162 20.2952 41.6634C20.4486 42.6106 20.2956 42.6355 20.449 43.5826C20.6023 44.5298 20.658 44.5208 20.8113 45.468C20.9647 46.4151 21.1593 46.3835 21.3196 47.3296C21.473 48.2768 21.3548 48.296 21.5082 49.2431C21.6615 50.1903 21.7519 50.1756 21.9052 51.1228C22.0586 52.07 22.0308 52.0745 22.1842 53.0217C22.3375 53.9689 22.1012 54.0073 22.2626 54.9603C22.416 55.9075 22.6871 55.8634 22.8404 56.8106C22.9938 57.7578 22.6879 57.8075 22.8424 58.7617C22.9958 59.7088 23.3364 59.6535 23.4839 60.6087C23.5749 61.2587 23.4109 61.9644 23.6317 62.579C23.8594 63.1924 24.1706 63.7923 24.5248 64.3495C24.8767 64.8927 25.4447 65.2721 25.9185 65.7312C26.3762 66.1786 26.7103 66.8319 27.2807 67.1824C27.8199 67.5165 28.4237 67.8972 29.0584 68.1158C29.9347 68.4165 30.1094 67.9092 30.9856 68.21C31.8619 68.5107 31.7129 68.9566 32.5892 69.2574C33.4655 69.5581 33.5417 69.3242 34.4191 69.6319C35.2954 69.9326 35.3106 69.8944 36.1869 70.1952C37.0631 70.4959 36.9611 70.7912 37.8374 71.092C38.7137 71.3927 38.8602 70.9758 39.7364 71.2765C40.6127 71.5773 40.4955 71.9109 41.3718 72.2116C42.248 72.5123 42.3746 72.1487 43.2509 72.4494C44.1272 72.7502 44.0545 72.9621 44.9307 73.2629C45.5273 73.4661 46.1144 73.6995 46.7205 73.8297C47.3335 73.9588 47.9424 74.2387 48.5639 74.2878C49.1866 74.3439 49.8347 74.117 50.4588 74.0942C51.0829 74.0714 51.7219 74.0962 52.3336 73.9968C52.9523 73.8962 53.5916 73.8352 54.1921 73.6661C54.7914 73.4901 55.2396 72.9097 55.8196 72.6582C56.3926 72.4079 57.0872 72.4236 57.628 72.107C58.162 71.7915 58.6534 71.3899 59.1541 71.0012C59.8905 70.4384 59.7812 70.2917 60.5095 69.723C61.246 69.1602 61.49 69.4779 62.2254 68.9081C62.9618 68.3452 62.6625 67.9507 63.3908 67.382C64.1273 66.8192 64.4531 67.2451 65.1884 66.6753C65.9248 66.1124 65.7982 65.9472 66.5335 65.3774C67.2699 64.8145 67.3598 64.9285 68.0962 64.3657C68.8326 63.8028 68.8603 63.8412 69.5967 63.2784C70.3331 62.7155 70.1328 62.4479 70.8693 61.885C71.6057 61.3221 71.5965 61.3093 72.3318 60.7395C72.865 60.3312 73.5364 60.072 73.9437 59.5912C74.3754 59.085 74.4943 58.3652 74.7943 57.7947C75.099 57.2091 75.1978 56.5854 75.3603 55.9586C75.5216 55.3248 76.0556 54.7448 76.0781 54.0907C76.1006 53.4366 75.8858 52.771 75.767 52.1256C75.6067 51.1795 75.7944 51.149 75.6399 50.1949C75.4866 49.2477 75.1459 49.3031 74.9915 48.3489C74.8381 47.4017 74.9771 47.3791 74.8226 46.425C74.6693 45.4778 74.9265 45.436 74.772 44.4819C74.6186 43.5347 74.6117 43.5358 74.4572 42.5817C74.3039 41.6345 74.0327 41.6785 73.8852 40.7233C73.7318 39.7761 74.003 39.732 73.8485 38.7779C73.6951 37.8307 73.6465 37.8386 73.492 36.8845C73.3386 35.9373 73.0328 35.987 72.8783 35.0328C72.7249 34.0857 72.9334 34.0518 72.7859 33.0965C72.6326 32.1493 72.3684 32.1922 72.2139 31.2381C72.0606 30.2909 72.0884 30.2864 71.9339 29.3322C71.7805 28.3851 71.8639 28.3715 71.7095 27.4174C71.5561 26.4702 71.5063 26.4711 71.3808 25.5194C71.2514 24.6327 71.3638 24.6215 71.2024 23.6685Z" fill="black"/>
<path d="M58.8389 71.1744C58.5217 71.4189 58.3636 71.5876 58.224 71.7389C58.5433 71.5083 58.8466 71.266 59.1579 71.0296C59.2345 70.9743 59.2973 70.9212 59.353 70.8692C59.2069 70.9359 59.0421 71.0198 58.8389 71.1744Z" fill="#455A64"/>
<path d="M20.4756 25.3366C21.1992 24.783 21.1395 24.6783 21.8434 24.135C21.4057 24.4278 20.96 24.6717 20.6365 25.0531C20.54 25.1617 20.4596 25.282 20.3792 25.4023C20.4117 25.3827 20.4442 25.3632 20.4756 25.3366Z" fill="#455A64"/>
<path d="M26.3747 20.8405C26.8637 20.468 26.9009 20.1689 27.0841 19.8461C26.872 19.902 26.6494 19.981 26.3311 20.2186C25.7724 20.6454 25.7574 20.9051 25.4641 21.253C25.7249 21.1892 25.981 21.1404 26.3747 20.8405Z" fill="#455A64"/>
<path d="M29.2929 18.5434C29.9213 18.0625 29.9083 17.8501 30.343 17.4507C29.9953 17.5501 29.7129 17.5245 29.232 17.9029C28.7371 18.2835 28.7069 18.5815 28.511 18.9135C28.7381 18.8623 28.9699 18.7961 29.2929 18.5434Z" fill="#455A64"/>
<path d="M23.393 23.04C23.7484 22.7678 23.8871 22.5665 24.0107 22.3606C23.8888 22.4448 23.7482 22.5462 23.5577 22.6916C22.891 23.2002 22.8835 23.3301 22.3409 23.7685C22.6811 23.5345 22.847 23.4575 23.393 23.04Z" fill="#455A64"/>
<path d="M61.7217 68.8389C61.4615 69.0385 61.3334 69.2166 61.2401 69.389C61.5333 69.3056 61.7928 69.2777 62.2318 68.949C62.4479 68.7852 62.5724 68.6292 62.6634 68.4858C62.383 68.517 62.1086 68.5402 61.7217 68.8389Z" fill="#455A64"/>
<path d="M69.1996 63.3499C68.8059 63.6498 68.6776 63.8708 68.5342 64.0871C68.8919 63.8288 69.0497 63.746 69.6015 63.3203C70.0836 62.9489 70.1657 62.7069 70.3695 62.4236C69.9141 62.7835 69.8281 62.8689 69.1996 63.3499Z" fill="#455A64"/>
<path d="M64.8654 66.8418C64.7888 66.8971 64.733 66.9491 64.6691 66.9952C64.8256 66.9483 64.9985 66.8702 65.1948 66.7168C65.3853 66.5715 65.5155 66.4502 65.6201 66.3474C65.4228 66.451 65.2209 66.5696 64.8654 66.8418Z" fill="#455A64"/>
<path d="M41.8622 40.8255C40.9789 40.5259 40.9941 40.4877 40.1121 40.1951C39.2288 39.8954 39.2534 39.8271 38.3783 39.5333C37.4951 39.2337 37.4962 39.2407 36.6141 38.948C35.7309 38.6484 35.6593 38.8673 34.7831 38.5666C33.8999 38.267 33.8764 38.3422 32.9943 38.0496C32.1111 37.75 32.2178 37.4396 31.3415 37.1388C30.4583 36.8392 30.4196 36.9527 29.5445 36.6589C28.6612 36.3593 28.6284 36.4647 27.7451 36.1651C26.8619 35.8655 26.9921 35.4798 26.11 35.1871C25.5135 34.9839 25.0816 34.7396 24.6444 34.3746C24.1748 33.9863 23.843 33.6114 23.5546 33.1079C23.257 32.5915 22.9256 32.1308 22.8308 31.5457C22.7361 30.9607 22.5813 30.3569 22.6996 29.7658C22.8132 29.1898 23.2701 28.751 23.593 28.2339C23.9008 27.755 24.2498 27.3552 24.7447 26.9746C25.488 26.4106 25.2336 26.0731 25.9712 25.5172C26.7146 24.9532 26.8527 25.1452 27.5961 24.5812C28.3395 24.0172 28.4672 24.1895 29.2037 23.6266C29.9471 23.0626 29.939 23.0568 30.6754 22.4939C31.4188 21.9299 31.4557 21.9811 32.1921 21.4183C32.9355 20.8543 32.7824 20.6576 33.5269 20.1006C34.2703 19.5366 34.0987 19.3143 34.8421 18.7503C35.5855 18.1863 35.8859 18.5878 36.6293 18.0238C37.3727 17.4598 37.2369 17.2818 37.9803 16.7178C38.539 16.291 39.1575 15.9689 39.7793 15.6677C40.407 15.3584 41.1064 15.3162 41.7764 15.1358C42.4463 14.9555 43.0592 14.3341 43.7586 14.2919C44.4511 14.2508 45.1414 14.7247 45.8414 14.8183C46.5264 14.9071 47.1472 15.1278 47.8188 15.3546C48.7021 15.6542 48.7584 15.4735 49.6416 15.7731C50.5248 16.0728 50.5143 16.0959 51.3906 16.3967C52.2738 16.6963 52.3454 16.4774 53.2275 16.77C54.1107 17.0696 54.1178 17.0256 55.001 17.3252C55.8842 17.6248 55.8245 17.7846 56.7077 18.0843C57.591 18.3839 57.6133 18.3016 58.4965 18.6012C59.3797 18.9009 59.3927 18.8487 60.2748 19.1414C61.158 19.441 61.0267 19.8197 61.9088 20.1124C62.792 20.412 62.8448 20.2533 63.728 20.5529C64.3245 20.7562 64.8538 20.9847 65.2968 21.3415C65.7663 21.7298 65.97 22.2829 66.2596 22.7933C66.5572 23.3096 66.8978 23.7832 66.9925 24.3682C67.0873 24.9533 67.1113 25.5426 67 26.1326C66.8863 26.7086 66.8268 27.3544 66.4969 27.8726C66.1892 28.3515 65.6378 28.6913 65.1419 29.065C64.3985 29.6289 64.5251 29.7942 63.7887 30.3571C63.0453 30.9211 62.8807 30.6976 62.1442 31.2605C61.4009 31.8245 61.3261 31.7151 60.5827 32.2791C59.8393 32.8431 60.0189 33.0712 59.2755 33.6352C58.5321 34.1992 58.4217 34.0456 57.6771 34.6026C56.9337 35.1666 56.9418 35.1724 56.1984 35.7364C55.455 36.3004 55.5898 36.4715 54.8452 37.0285C54.1018 37.5925 54.0466 37.5157 53.3032 38.0797C52.5598 38.6437 52.477 38.5285 51.7336 39.0925C51.1749 39.5193 50.6278 39.9298 50.0071 40.238C49.3794 40.5473 48.8109 41.09 48.141 41.2704C47.471 41.4507 46.7133 41.3094 46.0138 41.3516C45.3213 41.3927 44.6354 41.254 43.9434 41.1663C43.2342 41.06 42.5269 41.0535 41.8622 40.8255Z" fill="white"/>
<path d="M23.5553 32.9421C23.4605 32.3571 23.3057 31.7532 23.424 31.1622C23.5377 30.5862 23.9946 30.1474 24.3175 29.6303C24.6252 29.1514 24.9742 28.7516 25.4691 28.3709C26.2125 27.8069 25.9581 27.4694 26.6956 26.9135C27.439 26.3496 27.5771 26.5415 28.3205 25.9776C29.0639 25.4136 29.1917 25.5858 29.9281 25.0229C30.6715 24.459 30.6634 24.4531 31.3999 23.8903C32.1433 23.3263 32.1801 23.3775 32.9165 22.8146C33.6599 22.2506 33.5068 22.0539 34.2513 21.4969C34.9947 20.9329 34.8232 20.7106 35.5666 20.1466C36.3099 19.5826 36.6104 19.9841 37.3538 19.4201C38.0972 18.8562 37.9613 18.6781 38.7047 18.1141C39.2634 17.6873 39.8819 17.3652 40.5037 17.064C41.1314 16.7547 41.8309 16.7125 42.5008 16.5322C43.1708 16.3518 43.7836 15.7304 44.483 15.6882C45.1755 15.6471 45.8658 16.1211 46.5659 16.2146C47.2509 16.3034 47.8716 16.5242 48.5433 16.7509C49.4265 17.0506 49.4828 16.8699 50.3661 17.1695C51.2493 17.4691 51.2388 17.4922 52.115 17.793C52.9982 18.0926 53.0698 17.8737 53.9519 18.1663C54.8351 18.466 54.8423 18.4219 55.7255 18.7215C56.6087 19.0212 56.5489 19.181 57.4322 19.4806C58.3154 19.7802 58.3377 19.6979 59.221 19.9976C60.1042 20.2972 60.1171 20.245 60.9992 20.5377C61.8824 20.8373 61.7511 21.2161 62.6332 21.5087C63.5164 21.8083 63.5692 21.6496 64.4524 21.9493C65.049 22.1525 65.5782 22.381 66.0212 22.7379C66.4412 23.0842 66.6475 23.5653 66.8932 24.0257C66.7504 23.5843 66.4893 23.205 66.2503 22.7864C65.9607 22.276 65.7629 21.7148 65.2875 21.3346C64.8445 20.9778 64.3083 20.7504 63.7187 20.546C62.8355 20.2464 62.7827 20.4051 61.8995 20.1055C61.0163 19.8058 61.1476 19.4271 60.2655 19.1345C59.3823 18.8348 59.3693 18.887 58.4872 18.5943C57.604 18.2947 57.5817 18.377 56.6984 18.0773C55.8152 17.7777 55.875 17.6179 54.9917 17.3183C54.1085 17.0187 54.1014 17.0627 53.2182 16.7631C52.3349 16.4635 52.2634 16.6824 51.3813 16.3898C50.4981 16.0901 50.5086 16.067 49.6323 15.7662C48.7491 15.4666 48.6928 15.6473 47.8095 15.3477C47.1448 15.1198 46.5171 14.9002 45.8321 14.8113C45.1391 14.7167 44.4488 14.2428 43.7493 14.285C43.0568 14.326 42.4451 14.9544 41.7671 15.1289C41.0971 15.3093 40.3977 15.3515 39.77 15.6608C39.1482 15.962 38.5308 16.2911 37.971 16.7109C37.2276 17.2749 37.3634 17.4529 36.62 18.0169C35.8766 18.5809 35.5762 18.1794 34.8328 18.7434C34.0894 19.3074 34.261 19.5297 33.5176 20.0937C32.7742 20.6577 32.9273 20.8543 32.1828 21.4114C31.4394 21.9754 31.4026 21.9242 30.6661 22.487C29.9228 23.051 29.9308 23.0568 29.1944 23.6197C28.451 24.1837 28.3232 24.0115 27.5868 24.5743C26.8434 25.1383 26.7053 24.9463 25.9619 25.5103C25.2185 26.0743 25.4729 26.4118 24.7354 26.9677C24.2336 27.3494 23.8834 27.7423 23.5838 28.227C23.2608 28.7441 22.8039 29.1829 22.6903 29.7589C22.5709 30.343 22.7257 30.9469 22.8215 31.5388C22.9163 32.1239 23.2535 32.5766 23.5453 33.101C23.5741 33.1463 23.6028 33.1917 23.6246 33.2382C23.6007 33.1348 23.5722 33.0466 23.5553 32.9421Z" fill="#CFD8DC"/>
<path d="M43.5229 33.9927C42.5414 33.659 42.5508 33.6289 41.5693 33.2952C40.5878 32.9615 40.4588 33.3542 39.4703 33.0216C38.4889 32.6879 38.5229 32.5895 37.5344 32.2569C36.553 31.9233 36.5612 31.8862 35.5797 31.5525C34.9983 31.3539 34.3754 31.0763 34.1146 30.6112C33.8354 30.1205 34.0907 29.45 34.2008 28.896C34.3084 28.371 34.5543 27.9951 35.0433 27.6226C35.8692 26.9952 35.6597 26.7147 36.4856 26.0873C37.3114 25.4598 37.247 25.3703 38.0729 24.7428C38.8987 24.1154 39.0979 24.3761 39.9237 23.7487C40.7496 23.1212 40.5504 22.8605 41.3833 22.232C41.834 21.8871 42.4998 21.8575 43.0273 21.6789C43.5549 21.5002 44.1119 21.4597 44.6688 21.4621C45.2187 21.4657 45.7308 21.6326 46.2661 21.8101C47.2476 22.1438 47.2758 22.0534 48.2642 22.386C49.2457 22.7196 49.3079 22.5308 50.2893 22.8645C51.2708 23.1982 51.2415 23.2816 52.2299 23.6142C53.2114 23.9478 53.202 23.978 54.1835 24.3116C54.765 24.5102 54.9456 25.0527 55.2064 25.5178C55.4856 26.0085 55.9917 26.4909 55.8747 27.046C55.7671 27.571 55.3607 28.1017 54.8706 28.4672C54.0447 29.0947 53.9722 28.9992 53.1463 29.6267C52.3205 30.2541 52.4471 30.4193 51.6212 31.0468C50.7954 31.6742 50.5859 31.3937 49.7531 32.0223C48.9272 32.6497 48.9364 32.6625 48.1106 33.2899C47.6599 33.6348 47.261 34.0356 46.7404 34.2131C46.2129 34.3918 45.6534 34.1968 45.0896 34.1955C44.5419 34.2059 44.0593 34.1771 43.5229 33.9927Z" fill="#FC0707"/>
<path d="M55.4191 25.8556C55.4901 26.0299 55.5264 26.2099 55.4862 26.4022C55.3785 26.9272 54.9722 27.4579 54.482 27.8235C53.6562 28.4509 53.5837 28.3555 52.7578 28.9829C51.9319 29.6103 52.0586 29.7756 51.2327 30.403C50.4068 31.0304 50.1973 30.75 49.3645 31.3785C48.5387 32.006 48.5479 32.0187 47.722 32.6462C47.2713 32.991 46.8725 33.3918 46.3519 33.5693C45.8243 33.748 45.2648 33.553 44.701 33.5517C44.1511 33.5482 43.6615 33.5206 43.1251 33.3361C42.1436 33.0024 42.153 32.9723 41.1715 32.6386C40.1901 32.3049 40.061 32.6976 39.0726 32.3651C38.0911 32.0314 38.1251 31.9329 37.1367 31.6004C36.1552 31.2667 36.1635 31.2296 35.182 30.8959C34.7589 30.7503 34.307 30.5592 33.9991 30.2876C34.0171 30.399 34.0491 30.5082 34.1077 30.6059C34.3755 31.0699 34.9994 31.3545 35.5728 31.5472C36.5543 31.8809 36.546 31.918 37.5275 32.2516C38.509 32.5853 38.475 32.6838 39.4634 33.0163C40.4449 33.35 40.5739 32.9573 41.5624 33.2899C42.5438 33.6236 42.5344 33.6537 43.5159 33.9874C44.0523 34.1718 44.535 34.2006 45.0918 34.203C45.6487 34.2054 46.2082 34.4004 46.7427 34.2206C47.2633 34.0431 47.6621 33.6423 48.1128 33.2974C48.9387 32.67 48.9295 32.6572 49.7553 32.0298C50.5812 31.4024 50.7907 31.6828 51.6235 31.0543C52.4494 30.4268 52.3227 30.2616 53.1486 29.6341C53.9745 29.0067 54.047 29.1021 54.8729 28.4747C55.3619 28.1022 55.7694 27.5785 55.877 27.0535C55.9645 26.6247 55.6814 26.2419 55.4191 25.8556Z" fill="#FF6060"/>
<path d="M55.056 25.2545C54.9538 25.0638 54.8527 24.8801 54.7261 24.7148C54.7559 24.7672 54.7869 24.8265 54.8168 24.8788C54.8869 25.0032 54.9709 25.1254 55.056 25.2545Z" fill="#FC0707"/>
<path d="M54.2314 44.2168C53.8977 44.271 53.505 44.0489 53.2874 43.7626C52.9709 43.3494 53.2493 42.954 53.6616 42.6368C54.4411 42.0312 54.3778 41.9485 55.1653 41.3488C55.9448 40.7432 55.9275 40.7246 56.7139 40.1178C57.4934 39.5122 57.5648 39.6007 58.3453 39.0021C59.1248 38.3965 58.8082 37.9833 59.5877 37.3778C60.3671 36.7722 60.7021 37.2109 61.4885 36.6042C62.268 35.9986 62.1506 35.8461 62.937 35.2394C63.7164 34.6338 63.8166 34.7677 64.603 34.1609C65.3825 33.5554 65.0739 33.148 65.8534 32.5424C66.6329 31.9369 66.8677 32.2418 67.6472 31.6362C68.0596 31.319 68.548 31.3397 68.8646 31.7528C69.1812 32.166 69.3053 32.9321 68.8929 33.2493C68.1134 33.8549 68.1042 33.8421 67.3248 34.4477C66.5453 35.0533 66.3116 34.7553 65.5321 35.3609C64.7526 35.9665 64.8977 36.1573 64.1102 36.7571C63.3307 37.3627 63.1062 37.0775 62.3256 37.6761C61.5461 38.2817 61.6463 38.4156 60.8668 39.0212C60.0874 39.6267 60.2692 39.8688 59.4898 40.4744C58.7103 41.08 58.5664 40.8961 57.7869 41.5017C57.0075 42.1073 56.9188 42.0002 56.1382 42.5988C55.3587 43.2044 55.5233 43.4278 54.7427 44.0264C54.5953 44.129 54.3843 44.1919 54.2314 44.2168Z" fill="white"/>
<path d="M42.6147 31.9178L43.5968 32.1227C45.1907 32.4498 46.8491 32.073 48.1384 31.0915L50.3419 29.411C50.6021 29.2115 50.3595 28.8149 50.0672 28.9482L46.6555 30.5248C46.1973 30.7351 45.708 30.8861 45.2076 30.9674L42.6356 31.3855C42.3286 31.4282 42.3198 31.8585 42.6147 31.9178Z" fill="#FF6060"/>
<path d="M30.8543 67.6591L18.3101 70.1704L18.2075 55.8115L30.7517 53.3002L30.7848 57.939L22.7811 59.5414L22.8174 64.6226L30.8211 63.0202L30.8543 67.6591Z" fill="white"/>
<path d="M45.4047 64.7461L32.7549 67.2786L32.7246 63.0389L40.834 61.4153L40.8241 60.0237L36.7588 60.8376L32.7917 57.6237L32.7579 52.8985L37.2983 51.9895L37.3182 54.7728L38.5841 55.8266L40.7909 55.3848L40.7617 51.2961L45.3021 50.3871L45.4047 64.7461Z" fill="white"/>
<path d="M49.037 64.0189L48.9557 49.6773L53.4748 48.7509L53.5443 58.471L55.3816 58.1032L55.3121 48.3831L59.8525 47.4741L59.922 57.1942L61.7592 56.8263L61.6898 47.1063L66.2302 46.1973L66.3328 60.5562L49.037 64.0189Z" fill="white"/>
<path d="M67.98 60.2264L72.5204 59.3174L72.5067 57.3972L75.9339 53.1243L75.9732 58.6262L80.5136 57.7172L80.411 43.3583L75.8706 44.2673L75.8871 46.5651L72.4598 50.838L72.4178 44.9585L67.8774 45.8675L67.98 60.2264Z" fill="white"/>
<path fill-rule="evenodd" clip-rule="evenodd" d="M14.718 74.5904L14.5626 52.8396L48.8922 45.9667L48.8923 45.9884L51.6673 45.4196L51.6672 45.4112L53.439 45.0565L57.0648 44.3132L57.0649 44.3305L84.0011 38.9379L84.1565 60.6886L14.718 74.5904ZM66.3318 60.556L66.2292 46.197L61.6888 47.106L61.7582 56.8261L59.921 57.1939L59.8515 47.4739L55.3111 48.3829L55.3805 58.1029L53.5433 58.4707L53.4738 48.751L48.9547 49.677L49.036 64.0186L66.3318 60.556ZM67.8764 45.8673L67.979 60.2262L72.5194 59.3172L72.5057 57.3969L75.9329 53.124L75.9722 58.6259L80.5126 57.7169L80.4101 43.358L75.8696 44.267L75.8861 46.5649L72.4588 50.8378L72.4168 44.9583L67.8764 45.8673ZM40.7607 51.2959L40.7899 55.3846L38.5831 55.8264L37.3172 54.7726L37.2973 51.9893L32.7569 52.8983L32.7907 57.6234L36.7578 60.8373L40.823 60.0234L40.833 61.4151L32.7236 63.0386L32.7539 67.2783L45.4037 64.7458L45.3011 50.3869L40.7607 51.2959ZM30.7838 57.9388L30.7507 53.2999L18.2065 55.8113L18.3091 70.1702L30.8533 67.6588L30.8201 63.02L22.8163 64.6223L22.78 59.5412L30.7838 57.9388Z" fill="black"/>
<path d="M34.0168 69.892L21.4727 72.4033L21.5752 86.7622L26.1156 85.8532L26.0462 76.1332L29.5096 75.4398L29.579 85.1599L34.1194 84.2509L34.0168 69.892Z" fill="white"/>
<path d="M48.6698 81.3379L44.1294 82.2469L44.1176 80.5855L40.6542 81.2789L40.666 82.9402L36.1256 83.8492L36.0231 69.4903L48.5673 66.9789L48.6698 81.3379ZM44.0836 75.8387L44.06 72.5268L40.5966 73.2202L40.6203 76.5321L44.0836 75.8387Z" fill="white"/>
<path d="M63.1177 64.0659L50.5735 66.5773L50.6761 80.9362L55.2165 80.0272L55.147 70.3072L58.6104 69.6138L58.6798 79.3338L63.2202 78.4248L63.1177 64.0659Z" fill="white"/>
<path d="M77.7707 75.5118L73.2303 76.4208L73.2184 74.7595L69.755 75.4528L69.7669 77.1142L65.2265 78.0232L65.1239 63.6643L77.6681 61.1529L77.7707 75.5118ZM73.1845 70.0127L73.1608 66.7008L69.6974 67.3941L69.7211 70.7061L73.1845 70.0127Z" fill="white"/>
<path fill-rule="evenodd" clip-rule="evenodd" d="M36.0229 69.4903L36.1255 83.8493L40.6659 82.9403L40.654 81.2789L44.1174 80.5855L44.1292 82.2469L48.6697 81.3379L48.5671 66.979L36.0229 69.4903ZM81.259 56.7328L81.4143 78.4835L17.984 91.1824L17.8286 69.4316L81.259 56.7328ZM34.1192 84.2509L34.0167 69.892L21.4725 72.4033L21.5751 86.7623L26.1155 85.8533L26.046 76.1332L29.5094 75.4398L29.5788 85.1599L34.1192 84.2509ZM63.2201 78.4249L63.1175 64.0659L50.5733 66.5773L50.6759 80.9362L55.2163 80.0272L55.1468 70.3072L58.6102 69.6138L58.6797 79.3339L63.2201 78.4249ZM69.7667 77.1142L69.7548 75.4529L73.2182 74.7595L73.2301 76.4208L77.7705 75.5118L77.6679 61.1529L65.1237 63.6643L65.2263 78.0232L69.7667 77.1142ZM40.5964 73.2202L40.6201 76.5321L44.0835 75.8388L44.0598 72.5268L40.5964 73.2202ZM69.6973 67.3942L69.7209 70.7061L73.1843 70.0127L73.1606 66.7008L69.6973 67.3942Z" fill="black"/>
<path fill-rule="evenodd" clip-rule="evenodd" d="M15.2704 53.4264L83.3007 39.8066L83.4213 60.1127L80.5715 60.6832L80.7001 77.9039L18.6997 90.3165L18.5711 73.0958L15.4474 73.7212L15.2704 53.4264ZM15.8334 53.8848L16.0004 73.0394L19.125 72.4138L19.2536 89.6345L80.1377 77.4454L80.0091 60.2247L82.8596 59.6541L82.7458 40.4888L15.8334 53.8848Z" fill="#FC0707"/>
</svg>
