<svg width="24" height="18" viewBox="0 0 24 18" fill="none" xmlns="http://www.w3.org/2000/svg">
<path d="M0.749981 2.24996H23.25C23.664 2.24996 23.9999 1.91393 23.9999 1.49998C23.9999 1.08596 23.6639 0.75 23.25 0.75H0.749981C0.336026 0.75 0 1.08596 0 1.49998C0 1.914 0.336026 2.24996 0.749981 2.24996Z" fill="#202020"/>
<path d="M18.4063 8H0.593736C0.265972 8 0 8.33603 0 8.75C0 9.16397 0.266021 9.5 0.593736 9.5H18.4063C18.734 9.5 19 9.16397 19 8.75C19 8.33603 18.734 8 18.4063 8Z" fill="#202020"/>
<path d="M23.25 15.75H0.749981C0.335964 15.75 0 16.086 0 16.5C0 16.914 0.336026 17.25 0.749981 17.25H23.25C23.664 17.25 23.9999 16.9139 23.9999 16.5C24 16.086 23.664 15.75 23.25 15.75Z" fill="#202020"/>
</svg>
