<svg width="17" height="14" viewBox="0 0 17 14" fill="none" xmlns="http://www.w3.org/2000/svg">
<path d="M0.625399 11.0683C0.622081 11.2265 0.74896 11.3576 0.907222 11.3594L16.194 11.5383C16.3522 11.5402 16.4836 11.4511 16.4859 11.3404C16.4883 11.2296 16.3606 11.1351 16.2024 11.1304L0.921479 10.674C0.763217 10.6692 0.631012 10.7948 0.627776 10.9531L0.625399 11.0683Z" fill="#8F8F8F"/>
<path d="M12.7867 11.8826C12.9449 11.8844 13.1972 11.9274 13.3473 11.978L15.3967 12.6698C15.5466 12.7203 15.6413 12.8479 15.6068 12.9533C15.5723 13.0585 15.4206 13.1055 15.2697 13.0575L11.7957 11.9549C11.6448 11.907 11.6509 11.8693 11.8092 11.8712L12.7867 11.8826Z" fill="#8F8F8F"/>
<path d="M8.79601 10.4416C8.946 10.4922 8.93924 10.5297 8.78102 10.525L7.42504 10.4844C7.26678 10.4797 7.01388 10.4367 6.86296 10.3888L0.699245 8.43234C0.548358 8.3844 0.465192 8.22213 0.514477 8.07169L0.550325 7.9621C0.59961 7.81162 0.762623 7.73005 0.912609 7.78061L8.79601 10.4416Z" fill="#8F8F8F"/>
<path d="M8.00384 2.90579C8.18119 3.00587 8.18574 3.1774 8.014 3.28683L6.81485 4.05089C6.64307 4.16031 6.36203 4.16031 6.19024 4.05089L4.99114 3.28683C4.81936 3.1774 4.82395 3.00591 5.0013 2.90579L6.18008 2.24013C6.35744 2.14001 6.64762 2.14001 6.82497 2.24013L8.00384 2.90579Z" fill="#8F8F8F"/>
<path d="M16.4452 5.13533C16.3993 4.97715 16.2776 4.83462 16.0968 4.73249L13.6286 3.33886C13.4246 3.22362 13.1557 3.16016 12.8717 3.16016C12.5878 3.16016 12.3191 3.22362 12.1149 3.33886L9.65005 4.73064C9.37642 4.83622 9.18088 5.10243 9.18088 5.41211V8.08531C9.18088 8.53747 9.64124 8.81262 9.70724 8.85461L12.2179 10.4545C12.5775 10.6836 13.1661 10.6836 13.5256 10.4545L16.0362 8.85461C16.1408 8.788 16.2138 8.7104 16.2562 8.62871C16.4056 8.49474 16.5002 8.30051 16.5002 8.08518V5.41199C16.5003 5.31432 16.4806 5.22075 16.4452 5.13533ZM12.2784 3.62826C12.4311 3.54198 12.6476 3.49245 12.8717 3.49245C13.096 3.49245 13.3124 3.54198 13.4651 3.62826L15.9332 5.02193C16.0583 5.09248 16.1312 5.18404 16.1337 5.27319C16.1361 5.36246 16.068 5.45779 15.947 5.53494L13.4363 7.13475C13.2908 7.22755 13.0851 7.28068 12.8717 7.28068C12.6585 7.28068 12.4527 7.22755 12.3072 7.13484L9.79655 5.53506C9.67553 5.45787 9.60753 5.3625 9.60986 5.27323C9.61228 5.18408 9.68524 5.09252 9.81024 5.02197L12.2784 3.62826Z" fill="#8F8F8F"/>
<path d="M14.3733 5.14208C14.5506 5.24221 14.5551 5.41375 14.3834 5.52317L13.1842 6.28724C13.0125 6.39667 12.7314 6.39667 12.5597 6.28724L11.3605 5.52317C11.1888 5.41375 11.1934 5.24225 11.3707 5.14208L12.5495 4.47646C12.7268 4.37634 13.0169 4.37634 13.1943 4.47646L14.3733 5.14208Z" fill="#8F8F8F"/>
<path d="M8.5766 5.20708C8.5766 4.8015 8.82729 4.42987 9.2026 4.27538L10.0589 3.79183C10.0589 3.79183 10.1318 3.76876 10.1318 3.66892C10.1318 3.54565 10.1318 3.17583 10.1318 3.17583C10.1318 3.07795 10.1122 2.98446 10.0769 2.899C10.0309 2.74082 9.90919 2.59829 9.72835 2.49616L7.26016 1.10253C7.05606 0.987288 6.78726 0.923828 6.50335 0.923828C6.2194 0.923828 5.95065 0.987329 5.74654 1.10253L3.28183 2.4944C3.00816 2.59997 2.81262 2.8661 2.81262 3.17587V5.8491C2.81262 6.29095 3.27299 6.57633 3.3389 6.61841L5.84958 8.21819C6.20916 8.44736 6.79763 8.44737 7.15725 8.21823L8.52314 7.34785C8.52314 7.34785 8.57656 7.31856 8.57656 7.22294C8.5766 6.71903 8.5766 5.20708 8.5766 5.20708ZM6.50339 5.04428C6.29003 5.04428 6.08424 4.9911 5.93885 4.89843L3.42813 3.29865C3.30711 3.22151 3.23906 3.12613 3.24148 3.03686C3.24386 2.94767 3.31686 2.85607 3.44186 2.78556L5.91 1.39189C6.06282 1.30561 6.27913 1.25612 6.50343 1.25612C6.72774 1.25612 6.94401 1.30561 7.09682 1.39189L9.56501 2.78556C9.69 2.85607 9.76301 2.94767 9.76539 3.03686C9.76788 3.12613 9.69971 3.22142 9.57869 3.29861L7.06802 4.89839C6.92254 4.99106 6.71676 5.04428 6.50339 5.04428Z" fill="#8F8F8F"/>
</svg>
