<svg width="30" height="30" viewBox="0 0 30 30" fill="none" xmlns="http://www.w3.org/2000/svg">
<g clip-path="url(#clip0)">
<path d="M13.0536 16.7604L12.7984 20.3499C13.1635 20.3499 13.3216 20.1931 13.5113 20.0047L15.2231 18.3687L18.7702 20.9664C19.4207 21.3289 19.8791 21.138 20.0546 20.3679L22.3829 9.45795L22.3835 9.45731C22.5898 8.49564 22.0357 8.11959 21.4019 8.35551L7.71622 13.5952C6.7822 13.9577 6.79634 14.4784 7.55744 14.7143L11.0563 15.8026L19.1835 10.7172C19.566 10.464 19.9138 10.6041 19.6277 10.8574L13.0536 16.7604Z" fill="#202020"/>
</g>
<rect x="0.5" y="0.5" width="29" height="29" rx="6.5" stroke="#E1E1E3"/>
<defs>
<clipPath id="clip0">
<rect width="15.4277" height="15.4277" fill="white" transform="translate(7 7)"/>
</clipPath>
</defs>
</svg>
