<svg width="14" height="14" viewBox="0 0 14 14" fill="none" xmlns="http://www.w3.org/2000/svg">
<g clip-path="url(#clip0)">
<path d="M13.5069 8.10414C13.9246 4.58839 13.3062 2.36881 12.1909 1.36489L12.1915 1.36431C10.3913 -0.350108 4.3118 -0.603858 2.15814 1.44131C1.19097 2.44173 0.850302 3.90998 0.812969 5.72764C0.775636 7.54589 0.731302 10.952 3.90522 11.876H3.90814L3.90522 13.2871C3.90522 13.2871 3.88364 13.8587 4.2488 13.9736C4.66647 14.109 4.85547 13.8436 6.15455 12.2919C8.32688 12.4803 9.99522 12.0486 10.1848 11.9856C10.6235 11.8386 13.1056 11.5102 13.5069 8.10414ZM6.36864 11.2991C6.36864 11.2991 4.99372 13.0135 4.56614 13.4586C4.42614 13.6032 4.27272 13.5898 4.27505 13.3028C4.27505 13.1144 4.28555 10.9601 4.28555 10.9601C1.59464 10.189 1.7533 7.28864 1.78247 5.77139C1.81164 4.25356 2.0893 3.01048 2.9083 2.17339C4.79772 0.401809 10.1276 0.797892 11.4856 2.07423C13.1458 3.54598 12.5549 7.70397 12.5584 7.84572C12.2171 10.6889 10.2058 10.8691 9.83597 10.9922C9.67789 11.0447 8.2108 11.4221 6.36864 11.2991Z" fill="#202020"/>
<path d="M7.12937 2.50684C6.90479 2.50684 6.90479 2.85684 7.12937 2.85975C8.87179 2.87317 10.3068 4.08767 10.3225 6.31542C10.3225 6.5505 10.6667 6.54759 10.6638 6.3125H10.6632C10.6445 3.91209 9.07771 2.52025 7.12937 2.50684Z" fill="#202020"/>
<path d="M9.42171 5.94593C9.41646 6.1781 9.76005 6.18918 9.76296 5.9541C9.79155 4.63052 8.97546 3.54027 7.44187 3.42535C7.21729 3.40902 7.19396 3.76194 7.41796 3.77827C8.74796 3.87919 9.44855 4.78685 9.42171 5.94593Z" fill="#202020"/>
<path d="M9.05346 7.45172C8.7653 7.28489 8.47188 7.38872 8.35055 7.55264L8.0968 7.88106C7.96788 8.04789 7.72697 8.02572 7.72697 8.02572C5.9688 7.56081 5.49864 5.72097 5.49864 5.72097C5.49864 5.72097 5.47705 5.47189 5.63805 5.33831L5.95539 5.07581C6.11405 4.94981 6.21439 4.64647 6.0528 4.34839C5.62114 3.56847 5.33122 3.29956 5.18364 3.09306C5.02847 2.89881 4.79514 2.85506 4.55247 2.98631H4.54722C4.04264 3.28147 3.49022 3.83389 3.66697 4.40264C3.96855 5.00231 4.52272 6.91389 6.28905 8.35822C7.11913 9.04131 8.4328 9.74131 8.99047 9.90289L8.99571 9.91106C9.54521 10.0942 10.0795 9.52022 10.3648 9.00047V8.99639C10.4914 8.74497 10.4494 8.50697 10.2645 8.35122C9.93663 8.03156 9.44196 7.67864 9.05346 7.45172Z" fill="#202020"/>
<path d="M7.68179 4.72731C8.24238 4.75998 8.51421 5.05281 8.54338 5.65423C8.55388 5.88931 8.89513 5.87298 8.88463 5.6379C8.8473 4.85273 8.4378 4.41523 7.70046 4.3744C7.47587 4.36098 7.45487 4.7139 7.68179 4.72731Z" fill="#202020"/>
</g>
<defs>
<clipPath id="clip0">
<rect width="14" height="14" fill="white"/>
</clipPath>
</defs>
</svg>
