<svg width="30" height="30" viewBox="0 0 30 30" fill="none" xmlns="http://www.w3.org/2000/svg">
<g clip-path="url(#clip0)">
<path d="M24.2974 16.5787C24.894 11.5562 24.0107 8.38541 22.4174 6.95124L22.4182 6.95041C19.8465 4.50124 11.1615 4.13874 8.08486 7.06041C6.7032 8.48957 6.21653 10.5871 6.1632 13.1837C6.10986 15.7812 6.04653 20.6471 10.5807 21.9671H10.5849L10.5807 23.9829C10.5807 23.9829 10.5499 24.7996 11.0715 24.9637C11.6682 25.1571 11.9382 24.7779 13.794 22.5612C16.8974 22.8304 19.2807 22.2137 19.5515 22.1237C20.1782 21.9137 23.724 21.4446 24.2974 16.5787ZM14.0999 21.1429C14.0999 21.1429 12.1357 23.5921 11.5249 24.2279C11.3249 24.4346 11.1057 24.4154 11.109 24.0054C11.109 23.7362 11.124 20.6587 11.124 20.6587C7.27986 19.5571 7.50653 15.4137 7.5482 13.2462C7.58986 11.0779 7.98653 9.30207 9.15653 8.10624C11.8557 5.57541 19.4699 6.14124 21.4099 7.96457C23.7815 10.0671 22.9374 16.0071 22.9424 16.2096C22.4549 20.2712 19.5815 20.5287 19.0532 20.7046C18.8274 20.7796 16.7315 21.3187 14.0999 21.1429Z" fill="#202020"/>
<path d="M15.1859 8.58301C14.8651 8.58301 14.8651 9.08301 15.1859 9.08717C17.6751 9.10634 19.7251 10.8413 19.7476 14.0238C19.7476 14.3597 20.2393 14.3555 20.2351 14.0197H20.2343C20.2076 10.5905 17.9693 8.60217 15.1859 8.58301Z" fill="#202020"/>
<path d="M18.4585 13.4942C18.451 13.8259 18.9418 13.8417 18.946 13.5059C18.9868 11.615 17.821 10.0575 15.6301 9.89336C15.3093 9.87003 15.276 10.3742 15.596 10.3975C17.496 10.5417 18.4968 11.8384 18.4585 13.4942Z" fill="#202020"/>
<path d="M17.9345 15.6467C17.5228 15.4084 17.1037 15.5567 16.9303 15.7909L16.5678 16.26C16.3837 16.4984 16.0395 16.4667 16.0395 16.4667C13.5278 15.8025 12.8562 13.1742 12.8562 13.1742C12.8562 13.1742 12.8253 12.8184 13.0553 12.6275L13.5087 12.2525C13.7353 12.0725 13.8787 11.6392 13.6478 11.2134C13.0312 10.0992 12.617 9.71505 12.4062 9.42005C12.1845 9.14255 11.8512 9.08005 11.5045 9.26755H11.497C10.7762 9.68921 9.98701 10.4784 10.2395 11.2909C10.6703 12.1475 11.462 14.8784 13.9853 16.9417C15.1712 17.9175 17.0478 18.9175 17.8445 19.1484L17.852 19.16C18.637 19.4217 19.4003 18.6017 19.8078 17.8592V17.8534C19.9887 17.4942 19.9287 17.1542 19.6645 16.9317C19.1962 16.475 18.4895 15.9709 17.9345 15.6467Z" fill="#202020"/>
<path d="M15.9751 11.7547C16.7759 11.8014 17.1643 12.2197 17.2059 13.0789C17.2209 13.4147 17.7084 13.3914 17.6934 13.0555C17.6401 11.9339 17.0551 11.3089 16.0018 11.2505C15.6809 11.2314 15.6509 11.7355 15.9751 11.7547Z" fill="#202020"/>
</g>
<rect x="0.5" y="0.5" width="29" height="29" rx="6.5" stroke="#E1E1E3"/>
<defs>
<clipPath id="clip0">
<rect width="20" height="20" fill="white" transform="translate(5 5)"/>
</clipPath>
</defs>
</svg>
