<svg width="30" height="30" viewBox="0 0 30 30" fill="none" xmlns="http://www.w3.org/2000/svg">
<path fill-rule="evenodd" clip-rule="evenodd" d="M21.6339 8.34007C19.8797 6.58386 17.5469 5.61626 15.0615 5.61523C9.94031 5.61523 5.77238 9.78306 5.77032 14.9057C5.76963 16.5432 6.19741 18.1417 7.01051 19.5507L5.69238 24.3652L10.6178 23.0732C11.975 23.8135 13.5029 24.2036 15.0578 24.2041H15.0617C20.1823 24.2041 24.3507 20.0359 24.3527 14.9131C24.3537 12.4304 23.3882 10.0962 21.6339 8.34007ZM15.0615 22.635H15.0583C13.6727 22.6344 12.3137 22.262 11.1279 21.5586L10.846 21.3911L7.92318 22.1579L8.70332 19.3082L8.51965 19.016C7.7466 17.7865 7.33839 16.3654 7.33907 14.9062C7.34068 10.6485 10.805 7.18445 15.0646 7.18445C17.1273 7.18513 19.0663 7.98943 20.5243 9.44912C21.9822 10.9088 22.7847 12.849 22.784 14.9125C22.7822 19.1706 19.3181 22.635 15.0615 22.635ZM19.2975 16.8513C19.0654 16.735 17.9239 16.1736 17.7111 16.096C17.4984 16.0185 17.3435 15.9799 17.1889 16.2122C17.034 16.4445 16.5892 16.9675 16.4537 17.1224C16.3182 17.2773 16.183 17.2968 15.9508 17.1805C15.7186 17.0644 14.9706 16.8191 14.0838 16.0282C13.3937 15.4126 12.9278 14.6524 12.7923 14.4201C12.657 14.1875 12.7912 14.074 12.8941 13.9463C13.1455 13.6342 13.3971 13.307 13.4745 13.1522C13.552 12.9972 13.5132 12.8616 13.455 12.7455C13.3971 12.6293 12.9328 11.4866 12.7394 11.0217C12.5508 10.5692 12.3596 10.6303 12.217 10.6232C12.0817 10.6164 11.9269 10.615 11.7721 10.615C11.6173 10.615 11.3658 10.6731 11.1529 10.9056C10.9402 11.138 10.3405 11.6996 10.3405 12.8423C10.3405 13.985 11.1724 15.0889 11.2884 15.2438C11.4045 15.3988 12.9255 17.7437 15.2543 18.7492C15.8082 18.9886 16.2405 19.1313 16.5778 19.2383C17.134 19.415 17.6399 19.39 18.04 19.3303C18.4861 19.2636 19.4134 18.7686 19.607 18.2264C19.8004 17.6841 19.8004 17.2193 19.7423 17.1224C19.6844 17.0256 19.5295 16.9675 19.2975 16.8513Z" fill="#202020"/>
<rect x="0.5" y="0.5" width="29" height="29" rx="6.5" stroke="#E1E1E3"/>
</svg>
