<svg width="142" height="92" viewBox="0 0 142 92" fill="none" xmlns="http://www.w3.org/2000/svg">
<path fill-rule="evenodd" clip-rule="evenodd" d="M96.2226 0L97.7919 7.48215C98.5766 11.2372 95.1017 14.8802 91.4027 18.7194C87.7877 22.5025 83.7524 26.706 83.1639 31.7501C82.6315 30.6852 82.2111 28.8637 82.5754 25.8372L83.22 20.5409L80.838 25.3608C78.8764 29.3121 78.0077 33.7117 78.372 37.8591L77.4752 38.0273C74.785 27.7148 65.1451 18.9155 47.2384 10.3685L44.0438 8.85528L46.0614 11.6576C55.3651 24.5202 54.8046 35.7854 52.5908 43.0994L46.8461 44.2484C44.296 41.1939 41.0733 39.7086 40.9332 39.6526L39.1117 38.8119L39.6441 40.6614C41.886 48.3117 38.8595 53.6081 35.9171 58.7083C34.1797 61.7347 32.5543 64.5931 32.106 67.7597V67.8157V67.8998V68.2641V69.1889C32.106 69.301 32.106 69.4411 32.106 69.5812L32.134 78.4925V78.7167V79.137L32.2461 79.2211L32.106 79.3612V79.6695V79.8376L32.134 90.066V90.5985V91.6633L33.2549 91.4392L33.8154 91.3271L134.586 70.9543L134.95 70.8702L135.679 70.7301V69.6653V59.2407L139.742 58.428L140.107 58.344L140.835 58.2038V45.2012L139.714 45.4253L139.154 45.5374L136.268 46.1259C139.238 40.101 140.919 34.076 141.003 29.3962V28.8077C141.003 27.8549 140.891 26.9582 140.751 26.1455L140.303 23.9037L139.042 25.8372C139.042 25.8653 138.145 27.2104 136.912 28.4434C135.903 21.4937 131.616 15.5808 124.162 10.7889C121.359 7.22994 117.492 4.31555 113.317 2.63416L110.767 1.59732L112.168 3.86718C115.502 9.27563 112.588 16.5336 109.534 21.6618C106.647 26.5378 103.088 30.4891 101.659 32.0023C100.258 30.1528 100.062 26.1455 100.931 23.5113L103.032 17.2342L99.2772 22.7827C96.615 26.734 95.0737 30.6852 94.7094 34.5244L92.8319 34.9167C92.8879 32.4787 93.5605 30.1248 94.7374 28.3313C98.9969 21.8019 103.425 15.0764 99.5294 6.92169L96.2226 0Z" fill="#070606"/>
<path fill-rule="evenodd" clip-rule="evenodd" d="M139.296 57.3347L134.14 58.3716V69.833L33.3694 90.2057L33.3413 79.9773L34.0419 79.1927L34.0699 79.1647L34.0139 79.1366L33.3413 78.6322V68.3758L43.7098 66.3301V46.2936L108.163 33.291L120.717 30.7409C120.717 30.7409 120.717 33.4311 120.717 35.2245C120.717 37.6625 120.717 47.919 120.717 47.919C120.717 49.3201 120.717 50.7213 120.717 50.7213L139.324 46.9662V57.3347H139.296ZM43.2335 54.3363C41.8323 57.9232 38.2734 62.2107 36.7321 67.2829L43.2335 66.0219V54.3363ZM59.0384 38.1109C59.0384 38.1109 59.2066 39.9885 58.7862 42.8468L62.3732 42.1182C61.4204 40.8011 60.3275 39.456 59.0384 38.1109ZM119.764 14.1512C118.447 20.4844 113.039 26.7616 108.527 32.7865L118.363 30.7969C120.885 26.2291 122.342 20.4284 119.764 14.1512ZM123.912 37.9148C122.903 39.5681 122.006 41.1094 121.165 42.5946V46.714C121.586 45.6771 122.146 44.5842 122.903 43.4633C122.903 43.4633 122.763 45.6491 123.155 46.9942C123.155 46.9942 130.273 38.7274 129.993 28.2748C129.993 28.2748 131.31 39.3439 124.724 49.5163L130.833 48.2833C136.102 34.58 133.215 20.4564 123.603 11.9654C128.423 18.3547 130.245 27.4622 123.912 37.9148ZM134.476 47.5267C138.764 39.456 140.641 31.4134 139.689 26.5094C139.689 26.5094 138.091 28.9754 136.018 30.4326C135.541 23.2587 131.646 16.8695 123.379 11.6291C120.521 7.9301 116.654 5.18385 112.815 3.64258C119.652 14.7117 102.726 32.3382 101.549 33.4871C99.0834 31.6656 98.9432 26.3693 99.924 23.4549C96.9816 27.7984 95.6645 31.8338 95.4403 35.4207L91.7693 36.1493C91.6292 33.1789 92.3578 30.2645 93.815 28.0506C98.0465 21.5773 102.222 15.1881 98.5509 7.45371C100.372 16.1128 82.83 23.0625 83.8949 34.1597C83.8949 34.1597 80.6442 32.9547 81.4849 25.8929C79.4953 29.9282 78.6546 34.4399 79.187 38.6994L76.6089 39.2318C74.2549 28.5551 64.4469 19.8119 46.6523 11.3209C56.3763 24.7719 55.5356 36.5136 53.1256 43.9958L46.288 45.3689C43.7939 42.1462 40.3471 40.5769 40.3471 40.5769C44.0181 53.1593 33.9859 59.7447 32.8369 68.0115V68.0395V68.4038V69.3286C32.8369 69.4687 32.8369 69.5808 32.8369 69.7209L32.8649 78.6322V78.8564L33.0331 78.9965L33.3694 79.2487L32.949 79.7251L32.8369 79.8372V80.0054L32.8649 90.2338V90.7662L33.4254 90.6541L134.196 70.2814L134.56 70.1973V69.833V58.7078L139.352 57.727L139.717 57.643V46.4338L139.156 46.5458L134.476 47.5267Z" fill="#FC0707"/>
<path fill-rule="evenodd" clip-rule="evenodd" d="M107.882 41.0828L112.31 40.1861V44.1093L107.882 45.006V41.0828ZM107.882 50.5826L112.31 49.6859V51.6475L118.111 50.4705V33.5166L102.082 36.7673V53.7212L107.882 52.5442V50.5826Z" fill="white"/>
<path fill-rule="evenodd" clip-rule="evenodd" d="M70.668 48.6209L75.0956 47.7242V51.6474L70.668 52.5441V48.6209ZM70.668 58.1207L75.0956 57.224V59.1856L80.8964 58.0086V41.0547L64.8672 44.3054V61.2593L70.668 60.0823V58.1207Z" fill="white"/>
<path fill-rule="evenodd" clip-rule="evenodd" d="M70.668 68.5997L75.0956 67.703V71.6262L70.668 72.5229V68.5997ZM70.668 78.1276L75.0956 77.2308V79.1924L80.8964 78.0155V61.0615L64.8672 64.3122V81.2661L70.668 80.0892V78.1276Z" fill="white"/>
<path fill-rule="evenodd" clip-rule="evenodd" d="M46.2593 65.0145L52.06 63.8375V52.3761L56.4877 51.4794V62.9688L62.2884 61.7918V44.8379L46.2593 48.0605V65.0145Z" fill="white"/>
<path fill-rule="evenodd" clip-rule="evenodd" d="M120.688 52.9938V58.4864L125.76 57.4495V68.9389L131.561 67.762V56.2725L136.717 55.2357V49.7432L120.688 52.9938Z" fill="white"/>
<path fill-rule="evenodd" clip-rule="evenodd" d="M56.4868 70.8133L55.506 71.9342L52.0592 72.6348V66.8901L46.1183 68.0951V73.8398L42.6715 74.5404L41.6907 73.8118V68.9918L35.8899 70.1688V77.0344L37.5713 78.2955L35.8899 80.201V87.1227L41.6907 85.9458V81.1258L42.6715 80.0049L46.1183 79.3043V85.049L52.0592 83.816V78.0993L55.506 77.3987L56.4868 78.1273V82.9473L62.2876 81.7703V74.8486L60.6062 73.6437L62.2876 71.7101V64.8164L56.4868 65.9934V70.8133Z" fill="white"/>
<path fill-rule="evenodd" clip-rule="evenodd" d="M112.31 57.4186L107.882 62.5188V55.5971L102.082 56.7741V73.728L107.882 72.5511V70.2812L112.31 65.153V71.6543L118.111 70.4774V53.5234L112.31 54.7004V57.4186Z" fill="white"/>
<path fill-rule="evenodd" clip-rule="evenodd" d="M89.2744 64.8445L93.702 63.9478V65.9094L89.2744 66.8061V64.8445ZM83.4736 77.4829L89.2744 76.306V72.2706L99.5028 70.1969V57.2783L83.4736 60.529V77.4829Z" fill="white"/>
<path fill-rule="evenodd" clip-rule="evenodd" d="M83.4736 57.5044L89.2744 56.3274V44.838L93.702 43.9413V55.4307L99.5028 54.2537V37.2998L83.4736 40.5505V57.5044Z" fill="white"/>
<path d="M7.95521 69.8388L7.98504 74.0062L8.83915 73.8356C9.70407 73.6627 10.33 73.3757 10.7169 72.9746C11.1038 72.5734 11.2947 72.0127 11.2895 71.2924C11.2841 70.5427 11.0857 70.0413 10.6941 69.7884C10.3097 69.5339 9.68146 69.4939 8.80933 69.6681L7.95521 69.8388ZM7.91055 63.5987L7.93786 67.4133L8.7271 67.2556C9.50553 67.1001 10.0667 66.8407 10.4105 66.4776C10.7616 66.113 10.9348 65.6 10.93 64.9385C10.9252 64.2549 10.745 63.7978 10.3897 63.567C10.0343 63.3289 9.44939 63.2912 8.63493 63.4539L7.91055 63.5987ZM4.51866 61.6598L9.24329 60.7157C10.9515 60.3744 12.2188 60.445 13.0451 60.9276C13.8786 61.4088 14.3002 62.3256 14.3099 63.678C14.3168 64.6408 14.0809 65.4755 13.6024 66.1821C13.131 66.8872 12.4456 67.4216 11.5459 67.7854C12.5996 67.7662 13.3846 68.0252 13.9009 68.5624C14.4245 69.0982 14.6902 69.9246 14.6982 71.0418C14.7086 72.4971 14.2659 73.6639 13.3699 74.5422C12.4811 75.4117 11.0889 76.0358 9.19325 76.4146L4.63078 77.3263L4.51866 61.6598ZM14.8329 59.5988L18.8331 58.7995L21.3236 64.8821L23.7307 57.8208L27.4932 57.069L23.0004 67.7268L23.0428 73.6472L19.5074 74.3536L19.4641 68.3009L14.8329 59.5988Z" fill="black"/>
<path d="M7.95521 69.8388L7.93311 66.7507L4.90482 67.3558L4.92693 70.4439L7.95521 69.8388ZM7.98504 74.0062L4.95675 74.6114L4.97885 77.6994L8.00714 77.0943L7.98504 74.0062ZM10.6941 69.7884L8.75093 72.534L8.76162 72.5411L8.7724 72.5481L10.6941 69.7884ZM7.91055 63.5987L7.88845 60.5106L4.86016 61.1157L4.88226 64.2038L7.91055 63.5987ZM7.93785 67.4133L4.90957 68.0184L4.93167 71.1065L7.95996 70.5014L7.93785 67.4133ZM10.4105 66.4776L8.4784 64.468L8.4666 64.4803L8.4549 64.4926L10.4105 66.4776ZM10.3897 63.567L8.4357 66.3054L8.44945 66.3146L8.46334 66.3237L10.3897 63.567ZM4.51866 61.6598L4.49655 58.5717L1.46827 59.1768L1.49037 62.2649L4.51866 61.6598ZM13.0451 60.9276L11.2121 63.7419L11.2223 63.7478L13.0451 60.9276ZM13.6024 66.1821L11.2321 64.7132L11.2252 64.7234L11.2184 64.7337L13.6024 66.1821ZM11.5459 67.7854L10.9303 64.8759L11.0367 70.9317L11.5459 67.7854ZM13.9009 68.5624L11.5687 70.9837L11.5754 70.9906L11.582 70.9974L13.9009 68.5624ZM13.3699 74.5422L15.2169 76.6375L15.2199 76.6347L13.3699 74.5422ZM4.63078 77.3263L1.60249 77.9314L1.62459 81.0195L4.65288 80.4143L4.63078 77.3263ZM4.92693 70.4439L4.95675 74.6114L11.0133 73.4011L10.9835 69.2337L4.92693 70.4439ZM8.00714 77.0943L8.86125 76.9237L8.81705 70.7475L7.96294 70.9182L8.00714 77.0943ZM8.86125 76.9237C9.96676 76.7027 11.4535 76.2238 12.6469 74.9863L8.78686 70.9628C8.90258 70.8428 9.00621 70.7626 9.07807 70.7137C9.14871 70.6657 9.19159 70.6461 9.19345 70.6452C9.19536 70.6443 9.167 70.6574 9.10101 70.6777C9.03546 70.6979 8.94214 70.7225 8.81705 70.7475L8.86125 76.9237ZM12.6469 74.9863C13.9879 73.5958 14.3268 71.9402 14.3178 70.6873L8.26121 71.8975C8.26185 71.9861 8.24784 71.9091 8.31183 71.7211C8.38448 71.5077 8.53403 71.225 8.78686 70.9628L12.6469 74.9863ZM14.3178 70.6873C14.3089 69.4474 13.9707 67.904 12.6158 67.0286L8.7724 72.5481C8.51156 72.3796 8.36771 72.1537 8.30168 71.9869C8.24413 71.8416 8.26039 71.7818 8.26121 71.8975L14.3178 70.6873ZM12.6372 67.0427C11.4203 66.2372 9.89543 66.3586 8.78722 66.5801L8.83143 72.7562C8.95708 72.7311 9.04989 72.7186 9.11399 72.7129C9.17859 72.7071 9.20391 72.7091 9.19778 72.7087C9.19358 72.7084 8.99631 72.6964 8.75093 72.534L12.6372 67.0427ZM8.78722 66.5801L7.93311 66.7507L7.97732 72.9269L8.83143 72.7562L8.78722 66.5801ZM4.88226 64.2038L4.90957 68.0184L10.9661 66.8082L10.9388 62.9936L4.88226 64.2038ZM7.95996 70.5014L8.7492 70.3437L8.705 64.1675L7.91575 64.3252L7.95996 70.5014ZM8.7492 70.3437C9.76785 70.1401 11.2079 69.6857 12.3662 68.4625L8.4549 64.4926C8.71062 64.2226 8.92496 64.1188 8.95822 64.1034C8.99001 64.0887 8.92078 64.1244 8.705 64.1675L8.7492 70.3437ZM12.3427 68.4871C13.6534 67.126 13.9668 65.5133 13.9583 64.3334L7.90176 65.5436C7.90221 65.6068 7.89149 65.5061 7.96225 65.2964C8.04164 65.0612 8.20332 64.7537 8.4784 64.468L12.3427 68.4871ZM13.9583 64.3334C13.95 63.1643 13.6327 61.6654 12.3161 60.8103L8.46334 66.3237C8.18464 66.1427 8.02869 65.8994 7.95478 65.7118C7.88925 65.5455 7.90116 65.4596 7.90176 65.5436L13.9583 64.3334ZM12.3437 60.8285C11.1506 60.0291 9.65876 60.1568 8.61282 60.3658L8.65703 66.542C8.76835 66.5198 8.84754 66.5093 8.89881 66.5047C8.9506 66.5001 8.96363 66.5024 8.94588 66.5012C8.91889 66.4995 8.6989 66.4818 8.4357 66.3054L12.3437 60.8285ZM8.61282 60.3658L7.88845 60.5106L7.93265 66.6867L8.65703 66.542L8.61282 60.3658ZM4.54076 64.7479L9.26539 63.8038L9.22119 57.6276L4.49655 58.5717L4.54076 64.7479ZM9.26539 63.8038C10.701 63.5169 11.1663 63.7151 11.2121 63.7419L14.878 58.1134C13.2713 57.1749 11.2021 57.2318 9.22119 57.6276L9.26539 63.8038ZM11.2223 63.7478C11.2249 63.7492 11.217 63.7447 11.2072 63.7337C11.1976 63.7231 11.1984 63.72 11.2058 63.736C11.2218 63.7709 11.279 63.9216 11.2816 64.2831L17.3382 63.0728C17.3236 61.045 16.6531 59.1381 14.8678 58.1074L11.2223 63.7478ZM11.2816 64.2831C11.2832 64.5029 11.2564 64.6287 11.2416 64.6809C11.2289 64.7258 11.2227 64.7272 11.2321 64.7132L15.9726 67.6509C16.9734 66.1733 17.3489 64.5757 17.3382 63.0728L11.2816 64.2831ZM11.2184 64.7337C11.231 64.7147 11.2422 64.708 11.225 64.7215C11.2013 64.7399 11.1157 64.801 10.9303 64.8759L12.1615 70.6948C13.614 70.1075 14.9889 69.1227 15.9864 67.6304L11.2184 64.7337ZM11.0367 70.9317C11.3226 70.9265 11.4778 70.9613 11.5459 70.9837C11.6051 71.0032 11.5957 71.0118 11.5687 70.9837L16.2331 66.1411C15.1239 64.987 13.5907 64.6111 12.0551 64.639L11.0367 70.9317ZM11.582 70.9974C11.5166 70.9305 11.6653 70.9993 11.6699 71.6469L17.7265 70.4367C17.7151 68.8499 17.3323 67.2659 16.2198 66.1274L11.582 70.9974ZM11.6699 71.6469C11.6729 72.0562 11.6104 72.2727 11.5799 72.3532C11.5581 72.4106 11.5456 72.4246 11.5199 72.4497L15.2199 76.6347C17.0574 74.8334 17.7418 72.5791 17.7265 70.4367L11.6699 71.6469ZM11.5229 72.4468C11.4105 72.5568 10.8191 72.9972 9.17115 73.3265L9.21535 79.5027C11.3586 79.0744 13.5517 78.2666 15.2169 76.6375L11.5229 72.4468ZM9.17115 73.3265L4.60868 74.2382L4.65288 80.4143L9.21535 79.5027L9.17115 73.3265ZM7.65907 76.7212L7.54694 61.0547L1.49037 62.2649L1.60249 77.9314L7.65907 76.7212ZM14.8329 59.5988L14.8108 56.5107L9.98096 57.4758L12.1166 61.4887L14.8329 59.5988ZM18.8331 58.7995L21.6568 57.1387L20.9014 55.2937L18.811 55.7114L18.8331 58.7995ZM21.3236 64.8821L18.4998 66.5428L21.3795 73.5761L24.1614 65.4157L21.3236 64.8821ZM23.7307 57.8208L23.7086 54.7327L21.6215 55.1498L20.8929 57.2872L23.7307 57.8208ZM27.4932 57.069L30.2355 57.8533L32.2723 53.0215L27.4711 53.9809L27.4932 57.069ZM23.0004 67.7268L20.2581 66.9425L19.9671 67.6326L19.9722 68.3319L23.0004 67.7268ZM23.0428 73.6472L23.0649 76.7352L26.0932 76.1301L26.0711 73.0421L23.0428 73.6472ZM19.5074 74.3536L16.4792 74.9587L16.5013 78.0468L19.5295 77.4417L19.5074 74.3536ZM19.4641 68.3009L22.4924 67.6958L22.4873 66.9878L22.1804 66.411L19.4641 68.3009ZM14.855 62.6869L18.8552 61.8875L18.811 55.7114L14.8108 56.5107L14.855 62.6869ZM16.0094 60.4602L18.4998 66.5428L24.1473 63.2214L21.6568 57.1387L16.0094 60.4602ZM24.1614 65.4157L26.5686 58.3545L20.8929 57.2872L18.4857 64.3484L24.1614 65.4157ZM23.7528 60.9089L27.5153 60.1571L27.4711 53.9809L23.7086 54.7327L23.7528 60.9089ZM24.7508 56.2847L20.2581 66.9425L25.7428 68.511L30.2355 57.8533L24.7508 56.2847ZM19.9722 68.3319L20.0145 74.2523L26.0711 73.0421L26.0287 67.1216L19.9722 68.3319ZM23.0207 70.5591L19.4853 71.2655L19.5295 77.4417L23.0649 76.7352L23.0207 70.5591ZM22.5357 73.7485L22.4924 67.6958L16.4358 68.906L16.4792 74.9587L22.5357 73.7485ZM22.1804 66.411L17.5491 57.7089L12.1166 61.4887L16.7479 70.1908L22.1804 66.411Z" fill="white"/>
</svg>
