<svg width="14" height="14" viewBox="0 0 14 14" fill="none" xmlns="http://www.w3.org/2000/svg">
<g clip-path="url(#clip0)">
<path d="M13.5071 8.10414C13.9248 4.58839 13.3065 2.36881 12.1911 1.36489L12.1917 1.36431C10.3915 -0.350108 4.31205 -0.603858 2.15838 1.44131C1.19121 2.44173 0.850546 3.90998 0.813213 5.72764C0.77588 7.54589 0.731546 10.952 3.90546 11.876H3.90838L3.90546 13.2871C3.90546 13.2871 3.88388 13.8587 4.24905 13.9736C4.66671 14.109 4.85571 13.8436 6.1548 12.2919C8.32713 12.4803 9.99546 12.0486 10.185 11.9856C10.6237 11.8386 13.1058 11.5102 13.5071 8.10414ZM6.36888 11.2991C6.36888 11.2991 4.99396 13.0135 4.56638 13.4586C4.42638 13.6032 4.27296 13.5898 4.2753 13.3028C4.2753 13.1144 4.2858 10.9601 4.2858 10.9601C1.59488 10.189 1.75355 7.28864 1.78271 5.77139C1.81188 4.25356 2.08955 3.01048 2.90855 2.17339C4.79796 0.401809 10.1279 0.797892 11.4859 2.07423C13.146 3.54598 12.5551 7.70397 12.5586 7.84572C12.2174 10.6889 10.206 10.8691 9.83621 10.9922C9.67813 11.0447 8.21105 11.4221 6.36888 11.2991Z" fill="white"/>
<path d="M7.12937 2.50684C6.90479 2.50684 6.90479 2.85684 7.12937 2.85975C8.87179 2.87317 10.3068 4.08767 10.3225 6.31542C10.3225 6.5505 10.6667 6.54759 10.6638 6.3125H10.6632C10.6445 3.91209 9.07771 2.52025 7.12937 2.50684Z" fill="white"/>
<path d="M9.42171 5.94593C9.41646 6.1781 9.76005 6.18918 9.76296 5.9541C9.79155 4.63052 8.97546 3.54027 7.44187 3.42535C7.21729 3.40902 7.19396 3.76194 7.41796 3.77827C8.74796 3.87919 9.44855 4.78685 9.42171 5.94593Z" fill="white"/>
<path d="M9.05395 7.45172C8.76579 7.28489 8.47237 7.38872 8.35104 7.55264L8.09729 7.88106C7.96837 8.04789 7.72745 8.02572 7.72745 8.02572C5.96929 7.56081 5.49912 5.72097 5.49912 5.72097C5.49912 5.72097 5.47754 5.47189 5.63854 5.33831L5.95587 5.07581C6.11454 4.94981 6.21487 4.64647 6.05329 4.34839C5.62162 3.56847 5.33171 3.29956 5.18412 3.09306C5.02896 2.89881 4.79562 2.85506 4.55296 2.98631H4.54771C4.04313 3.28147 3.49071 3.83389 3.66746 4.40264C3.96904 5.00231 4.52321 6.91389 6.28954 8.35822C7.11962 9.04131 8.43329 9.74131 8.99095 9.90289L8.9962 9.91106C9.5457 10.0942 10.08 9.52022 10.3653 9.00047V8.99639C10.4919 8.74497 10.4499 8.50697 10.265 8.35122C9.93712 8.03156 9.44245 7.67864 9.05395 7.45172Z" fill="white"/>
<path d="M7.68203 4.72731C8.24262 4.75998 8.51446 5.05281 8.54362 5.65423C8.55412 5.88931 8.89538 5.87298 8.88488 5.6379C8.84754 4.85273 8.43804 4.41523 7.7007 4.3744C7.47612 4.36098 7.45512 4.7139 7.68203 4.72731Z" fill="white"/>
</g>
<defs>
<clipPath id="clip0">
<rect width="14" height="14" fill="white"/>
</clipPath>
</defs>
</svg>
