<svg width="20" height="20" viewBox="0 0 20 20" fill="none" xmlns="http://www.w3.org/2000/svg">
<g clip-path="url(#clip0)">
<path d="M19.8217 13.7843C19.768 13.6956 19.4355 12.9832 17.8353 11.5191C16.1602 9.98604 16.3852 10.235 18.4029 7.5841C19.6317 5.96965 20.123 4.98374 19.9692 4.56226C19.823 4.16049 18.9192 4.26648 18.9192 4.26648L15.9139 4.28373C15.9139 4.28373 15.6914 4.25416 15.5252 4.35151C15.3639 4.44764 15.2601 4.66947 15.2601 4.66947C15.2601 4.66947 14.7839 5.91913 14.1488 6.98145C12.81 9.22319 12.2737 9.3415 12.0549 9.20223C11.5461 8.87811 11.6736 7.89836 11.6736 7.20328C11.6736 5.03057 12.0074 4.12475 11.0223 3.8906C10.6948 3.81296 10.4548 3.7612 9.61848 3.75257C8.54591 3.74148 7.63709 3.75627 7.1233 4.00398C6.78078 4.16912 6.51701 4.53761 6.67827 4.55856C6.87703 4.58444 7.32707 4.6781 7.56583 4.99852C7.87461 5.41138 7.86336 6.34061 7.86336 6.34061C7.86336 6.34061 8.04087 8.89783 7.44958 9.21579C7.0433 9.43393 6.487 8.98903 5.29317 6.95434C4.68187 5.91296 4.21934 4.76067 4.21934 4.76067C4.21934 4.76067 4.13058 4.54623 3.97182 4.43162C3.77931 4.29236 3.50929 4.24799 3.50929 4.24799L0.651577 4.26525C0.651577 4.26525 0.222795 4.27757 0.0652839 4.4612C-0.0747264 4.62511 0.054033 4.96278 0.054033 4.96278C0.054033 4.96278 2.2917 10.1228 4.82438 12.7244C7.1483 15.1091 9.786 14.9526 9.786 14.9526H10.9811C10.9811 14.9526 11.3424 14.9132 11.5261 14.7172C11.6961 14.5373 11.6899 14.1996 11.6899 14.1996C11.6899 14.1996 11.6661 12.6184 12.4112 12.3855C13.145 12.1563 14.0876 13.9137 15.0864 14.5903C15.8414 15.1017 16.4152 14.9896 16.4152 14.9896L19.0867 14.9526C19.0867 14.9526 20.4843 14.8676 19.8217 13.7843Z" fill="#F5F5F7"/>
</g>
<defs>
<clipPath id="clip0">
<rect width="20" height="20" fill="white"/>
</clipPath>
</defs>
</svg>
